# xmcd
#
# Track frame offsets: 
#        150
#        10443
#        22753
#        36865
#        49400
#        62318
#        73200
#        86638
#        100615
#        110030
#        125245
#        138240
#        150885
#        165258
#        178688
#        190993
#        202340
#        215060
#        224590
#        237378
#        252165
#        264508
#        277308
#        290618
#        301788
#        314415
#        325528
#
# Disc length: 4515 seconds
#
# Revision: 2
# Processed by: cddbd v1.5.2PL0 Copyright (c) Steve Scherf et al.
# Submitted via: ExactAudioCopy v0.95a4
#
DISCID=9711a11b
DTITLE=Various Artist - Wagon Wheels [CD1]
DYEAR=1974
DGENRE=Country
TTITLE0=Sons of the Pioneers - Wagon Wheels
TTITLE1=Eddie Arnold - Cattle Call
TTITLE2=Bing Crosby , John Scott Trotter Orch - Along The Santa Fe Tra
TTITLE2=il
TTITLE3=Jimmy Wakley - Take Me Back To My Boots and Saddle
TTITLE4=Sons of the Pioneers - Cool Water
TTITLE5=Patsy Cline - South of The Border
TTITLE6=Rex Allen - The Last Round Up
TTITLE7=Bing Crosby, Andrews Sisters and Vic Schoen Orch - Don't Fence M
TTITLE7=e In
TTITLE8=Sons of the Pioneers - Whoopie Ti Yi Yo
TTITLE9=Jimmy Rogers - Blue Yodel No.1 (T for Texas)
TTITLE10=Sons of the Pioneers - Empty Saddles
TTITLE11=Jimmie Davis - Nobody's Darling But Mine
TTITLE12=Jim Reeves - The Shifting Whispering Sands
TTITLE13=Vaughn Monroe and Sons of the Pioneers - Riders In The Sky
TTITLE14=Sons of the Pioneers - Tumbling Tumbleweeds
TTITLE15=Kitty Wells - It Wasn't God Who Made Honky Tonk Angels
TTITLE16=Big Crosby and The Jesters w Bob Haggart Orch - Sioux City Sue
TTITLE17=Sons of the Pioneers - Along The Navajo Trail
TTITLE18=Elton Britt and The Skytoppers - Someday (You'll Want Me To Wan
TTITLE18=t You)
TTITLE19=Vernon Dalhart - The Prisoner's Song
TTITLE20=Montana Slim - When It's Springtime In The Rockies
TTITLE21=Jimmie Davis - You Are My Sunshine
TTITLE22=Sons of the Pioneers - Teardrops In My Heart
TTITLE23=Jim Reeves - Mexicali Rose
TTITLE24=Jimmy Wakley - Beautiful Brown Eyes
TTITLE25=Sons of the Pioneers - Twilight On The Trail
TTITLE26=Roy Rogers and Dale Evans - Happy Trails
EXTD=
EXTT0=
EXTT1=
EXTT2=
EXTT3=
EXTT4=
EXTT5=
EXTT6=
EXTT7=
EXTT8=
EXTT9=
EXTT10=
EXTT11=
EXTT12=
EXTT13=
EXTT14=
EXTT15=
EXTT16=
EXTT17=
EXTT18=
EXTT19=
EXTT20=
EXTT21=
EXTT22=
EXTT23=
EXTT24=
EXTT25=
EXTT26=
PLAYORDER=
